#!OML:ASF G:\JayActor3\Patient Classification 1\Patient 1\Session 5\male.ASF
:FULLY-SPECIFIED
:DEGREES
627
root 44.7188 16.1233 -4.8814 783 98.5242 787.302
lowerback 0.350539 0.652262 7.23787
upperback 3.25607 0.809611 0.478878
thorax 3.27314 0.624347 -3.53679
lowerneck -9.73889 -0.960533 1.37906
upperneck 10.9506 -1.7721 2.57663
head 4.90083 -0.620598 0.45153
rclavicle 8.4732e-015 1.51076e-014
rhumerus -24.0742 5.96169 -90.4146
rradius 35.1653
rwrist -0.239935
rhand -18.8451 -4.93741
rfingers 7.12502
rthumb 7.45471 -34.7861
lclavicle 8.4732e-015 1.51076e-014
lhumerus -36.112 16.4105 77.0915
lradius 20.1866
lwrist 6.49886
lhand -15.9318 12.6928
lfingers 7.12502
lthumb 10.2659 42.4223
rfemur 3.32905 -0.33012 33.4232
rtibia 28.9683
rfoot -24.9043 -12.2225
rtoes 3.62489
lfemur -19.8019 2.02431 -13.4013
ltibia 25.6614
lfoot -8.31773 5.37978
ltoes -15.5196
628
root 44.8129 16.1191 -4.90144 784.417 98.4431 788.678
lowerback 0.265251 0.675824 7.23026
upperback 3.2316 0.833892 0.457727
thorax 3.2989 0.636143 -3.55299
lowerneck -9.66522 -0.885249 1.44566
upperneck 10.8578 -1.67132 2.53532
head 4.85824 -0.573583 0.435365
rclavicle -5.66536e-015 -7.95139e-016
rhumerus -24.2154 5.88319 -90.5444
rradius 35.0572
rwrist -0.0379422
rhand -18.8619 -4.86606
rfingers 7.12502
rthumb 7.4385 -34.7153
lclavicle -5.66536e-015 -7.95139e-016
lhumerus -36.0534 16.3126 77.1551
lradius 20.3017
lwrist 6.64241
lhand -15.9801 12.7448
lfingers 7.12502
lthumb 10.2194 42.4766
rfemur 3.61732 -0.233507 33.3669
rtibia 29.085
rfoot -24.9312 -12.1017
rtoes 2.98211
lfemur -19.6354 2.12696 -13.4053
ltibia 26.0089
lfoot -7.97884 5.57939
ltoes -15.4101
629
root 44.9066 16.1175 -4.92148 785.809 98.3489 790.037
lowerback 0.190438 0.698245 7.19738
upperback 3.20802 0.858043 0.431504
thorax 3.31916 0.647065 -3.56041
lowerneck -9.58841 -0.802876 1.51463
upperneck 10.763 -1.56193 2.50102
head 4.81467 -0.521782 0.421504
rclavicle 1.09829e-014 7.95139e-015
rhumerus -24.3622 5.75673 -90.6682
rradius 34.9118
rwrist 0.161816
rhand -18.8909 -4.8058
rfingers 7.12502
rthumb 7.41048 -34.656
lclavicle 1.09829e-014 7.95139e-015
lhumerus -35.9817 16.2199 77.2167
lradius 20.4059
lwrist 6.77488
lhand -16.0394 12.7929
lfingers 7.12502
lthumb 10.1621 42.5274
rfemur 3.87933 -0.0961905 33.2989
rtibia 29.2421
rfoot -24.9244 -12.001
rtoes 2.32279
lfemur -19.4786 2.24401 -13.4265
ltibia 26.318
lfoot -7.65621 5.75562
ltoes -15.2359
630
root 44.9992 16.1182 -4.94141 787.153 98.2317 791.356
lowerback 0.127666 0.720063 7.12792
upperback 3.18835 0.88311 0.397199
thorax 3.33604 0.657519 -3.5558
lowerneck -9.50865 -0.715129 1.5895
upperneck 10.6628 -1.44595 2.46744
head 4.769 -0.466548 0.407263
rclavicle -1.23495e-014 -5.56597e-015
rhumerus -24.5078 5.57419 -90.7818
rradius 34.7299
rwrist 0.366891
rhand -18.9236 -4.77181
rfingers 7.12502
rthumb 7.37888 -34.6231
lclavicle -1.23495e-014 -5.56597e-015
lhumerus -35.8864 16.1363 77.2744
lradius 20.4905
lwrist 6.88787
lhand -16.1023 12.8326
lfingers 7.12502
lthumb 10.1014 42.5702
rfemur 4.09854 0.0897539 33.2135
rtibia 29.4691
rfoot -24.8971 -11.9309
rtoes 1.6469
lfemur -19.3172 2.38724 -13.4777
ltibia 26.5725
lfoot -7.37968 5.84024
ltoes -14.9678
631
root 45.0907 16.1206 -4.96102 788.448 98.0958 792.632
lowerback 0.0780285 0.740506 7.02385
upperback 3.17327 0.90816 0.35634
thorax 3.34952 0.667114 -3.53872
lowerneck -9.43643 -0.621975 1.66744
upperneck 10.5659 -1.32367 2.43677
head 4.72578 -0.407768 0.393709
rclavicle -1.0958e-014 -3.10104e-014
rhumerus -24.6482 5.34035 -90.8833
rradius 34.5075
rwrist 0.568364
rhand -18.9511 -4.77336
rfingers 7.12502
rthumb 7.35239 -34.6256
lclavicle -1.0958e-014 -3.10104e-014
lhumerus -35.766 16.0603 77.3293
lradius 20.5542
lwrist 6.97988
lhand -16.1695 12.8746
lfingers 7.12502
lthumb 10.0366 42.6152
rfemur 4.26118 0.320345 33.1178
rtibia 29.7909
rfoot -24.8614 -11.8966
rtoes 0.952103
lfemur -19.1364 2.56392 -13.5564
ltibia 26.7723
lfoot -7.17932 5.7952
ltoes -14.58
632
root 45.1808 16.1244 -4.98075 789.689 97.9374 793.861
lowerback 0.0374308 0.760891 6.89046
upperback 3.16174 0.934616 0.30525
thorax 3.36117 0.676766 -3.51585
lowerneck -9.3721 -0.526477 1.74245
upperneck 10.4763 -1.1994 2.4175
head 4.68639 -0.347164 0.384152
rclavicle 1.6847e-014 -7.95139e-015
rhumerus -24.787 5.0518 -90.9721
rradius 34.2478
rwrist 0.769678
rhand -18.9805 -4.78762
rfingers 7.12502
rthumb 7.32394 -34.6409
lclavicle 1.6847e-014 -7.95139e-015
lhumerus -35.6206 15.9952 77.3785
lradius 20.5985
lwrist 7.04013
lhand -16.2347 12.9064
lfingers 7.12502
lthumb 9.97377 42.6501
rfemur 4.35737 0.571918 32.9989
rtibia 30.2253
rfoot -24.8152 -11.8833
rtoes 0.184996
lfemur -18.9246 2.76423 -13.6725
ltibia 26.926
lfoot -7.06755 5.64684
ltoes -14.1174
